<svg xmlns="http://www.w3.org/2000/svg" fill-rule="evenodd" viewBox="0 0 100 100">
    <path d="M97.25 33.67A1.5 1.5 0 0 0 96 33h-5.78a1.5 1.5 0 0 0-1.08.45L78.88 44h-23L68 24.29A1.5 1.5 0 0 0 66.72 22h-13a1.5 1.5 0 0 0-1.06.44L31.1 44h-7.4C11.51 44 3 50.8 3 60.57A3.43 3.43 0 0 0 6.43 64H28.6l25.56 25.56a1.5 1.5 0 0 0 1.06.44h13a1.5 1.5 0 0 0 1.28-2.29L54.9 64h21.42a13.13 13.13 0 0 0 12.08-8l9-20.94a1.5 1.5 0 0 0-.15-1.39ZM54.34 25H64L52.34 44h-17Zm31.3 29.85A10.13 10.13 0 0 1 76.32 61h-24.1a1.5 1.5 0 0 0-1.28 2.29L65.53 87h-9.69L30.28 61.44a1.5 1.5 0 0 0-1.06-.44H6.43a.44.44 0 0 1-.43-.46C6 52.57 13.28 47 23.7 47h55.82a1.5 1.5 0 0 0 1.08-.45L90.85 36h2.88Z"/>
</svg>